<?xml version="1.0" encoding="UTF-8" standalone="no"?>
<svg
   xmlns:dc="http://purl.org/dc/elements/1.1/"
   xmlns:cc="http://creativecommons.org/ns#"
   xmlns:rdf="http://www.w3.org/1999/02/22-rdf-syntax-ns#"
   xmlns:svg="http://www.w3.org/2000/svg"
   xmlns="http://www.w3.org/2000/svg"
   viewBox="0 0 120 120"
   height="120"
   width="120"
   version="1.1"
   id="svg3390">
  <metadata
     id="metadata3396">
    <rdf:RDF>
      <cc:Work
         rdf:about="">
        <dc:format>image/svg+xml</dc:format>
        <dc:type
           rdf:resource="http://purl.org/dc/dcmitype/StillImage" />
        <dc:title></dc:title>
      </cc:Work>
    </rdf:RDF>
  </metadata>
  <defs
     id="defs3394" />
  <g
     transform="translate(-11.07084,1.1861615)"
     id="g3400">
    <path
       id="path3414"
       d="m 54.707171,104.44075 c -2.896865,-0.54822 -7.111715,-2.10913 -9.364517,-3.468 -5.990712,-3.613549 -10.756125,-9.922474 -12.784258,-16.925056 -0.584712,-2.018853 -0.694994,-3.090828 -0.694434,-6.75 9e-4,-4.93134 0.518413,-7.224234 2.441133,-10.812777 L 35.356739,64.52214 33.421143,61.667274 C 28.258856,54.053283 26.74923,44.115303 29.506935,35.899767 32.943416,25.662071 41.898296,18.032009 53.297693,15.6287 c 3.842664,-0.81014 10.996591,-0.756738 14.482296,0.108105 5.398014,1.339309 9.525975,3.707862 13.320774,7.643231 5.378631,5.577871 7.89606,11.582186 7.889689,18.817658 -0.0037,4.16577 -0.630064,6.890892 -2.379141,10.350471 -0.667489,1.320258 -1.213617,2.494359 -1.213617,2.609112 0,0.114753 0.67631,1.10217 1.50291,2.194263 2.071791,2.737212 4.019993,6.898551 4.984188,10.646154 0.697848,2.712372 0.81293,3.775182 0.828365,7.65 0.01929,4.846983 -0.378012,6.933753 -2.102882,11.044695 -3.391894,8.08401 -11.483272,14.792511 -20.750839,17.204361 -3.731991,0.97124 -11.433612,1.24774 -15.152265,0.544 z m 14.040522,-3.70338 c 1.320001,-0.35316 3.927483,-1.398982 5.794404,-2.324053 2.846913,-1.41066 3.834853,-2.099988 6.125157,-4.273785 1.501914,-1.42551 3.375526,-3.576183 4.163583,-4.77927 4.813401,-7.348374 5.405874,-16.628508 1.568766,-24.572109 l -1.130546,-2.340459 -0.0819,1.35 c -0.382605,6.306762 -2.329659,11.994762 -5.988204,17.493558 -3.414936,5.132655 -8.59977,9.9993 -13.001259,12.203382 -0.7425,0.371811 -2.162724,1.451034 -3.156054,2.398272 -2.098329,2.000958 -3.528708,2.798067 -5.898591,3.287109 -3.112724,0.642333 -5.345355,-0.456168 -5.345355,-2.630028 0,-1.688502 0.951657,-2.443479 3.67755,-2.917497 3.331062,-0.579255 5.646357,-1.33143 6.391272,-2.076348 0.821343,-0.82134 1.382196,-3.45711 1.087005,-5.108448 l -0.214512,-1.2 -2.750841,-0.193947 c -4.54345,-0.320334 -8.560629,-1.958889 -12.444622,-5.075997 -3.219893,-2.584134 -5.557413,-5.718612 -7.927307,-10.630056 -0.489271,-1.013979 -1.065052,-1.8 -1.318546,-1.8 -0.2475,0 -0.744651,0.6075 -1.104783,1.35 -1.79933,3.709782 -2.208659,8.924898 -1.053279,13.419495 2.490696,9.689169 9.433545,16.381203 19.403085,18.702141 3.324237,0.77389 9.773253,0.63619 13.204977,-0.28196 z m 0.611586,-13.555831 c 1.148629,-0.998883 2.673445,-2.450133 3.38848,-3.225 3.372587,-3.654783 6.538871,-9.630864 7.88109,-14.874852 0.66867,-2.612472 1.080819,-7.398582 0.750462,-8.714829 l -0.202102,-0.80523 -1.441008,1.057797 c -2.058573,1.511133 -4.084677,2.298054 -6.425112,2.49546 -2.341713,0.197511 -3.316859,-0.166929 -4.004448,-1.496577 -0.533772,-1.032198 -0.326754,-1.805739 0.699243,-2.612787 0.871417,-0.685458 2.035936,-0.768495 3.716436,-0.265005 1.021041,0.30591 1.315488,0.258723 2.734806,-0.43827 0.874812,-0.429603 2.058252,-1.210188 2.629866,-1.734639 l 1.039296,-0.953544 -1.039296,-0.883923 c -1.706943,-1.451751 -4.13028,-3.035205 -8.398503,-5.487735 -2.220099,-1.275672 -4.813356,-2.929704 -5.762793,-3.675624 -2.039421,-1.602261 -4.208373,-4.155612 -5.21142,-6.135033 -0.789666,-1.558329 -0.754917,-1.551375 -3.861558,-0.772746 -4.308702,1.07991 -7.486542,4.558992 -7.479666,8.188692 0.004,2.128983 0.692715,3.036744 2.759718,3.637638 0.914868,0.265962 1.97874,0.798909 2.364162,1.184328 1.177989,1.177989 0.798978,3.177423 -0.71115,3.751572 l -0.775431,0.294819 0.609189,0.665823 c 1.254786,1.371429 1.062444,3.107727 -0.419043,3.782739 -0.999855,0.455562 -1.808987,0.418533 -3.300399,-0.151041 -1.168377,-0.446208 -1.380611,-0.445737 -2.710029,0.006 -2.282484,0.77559 -4.291104,2.277144 -4.291797,3.208359 -0.0018,2.611497 1.856844,4.054032 10.213413,7.926249 2.973048,1.377633 6.244896,3.104688 7.270773,3.837903 2.156763,1.541472 4.716381,4.15749 5.443344,5.563284 0.550623,1.064787 0.688935,1.067226 3.037135,0.05354 2.774915,-1.1979 4.934756,-4.219356 4.934756,-6.903366 0,-1.775349 -0.608534,-2.6115 -2.516397,-3.457623 -2.064567,-0.915618 -2.647032,-1.610391 -2.528466,-3.015993 0.06815,-0.807963 0.324174,-1.295109 0.909264,-1.730091 0.730923,-0.543402 0.940875,-0.567573 2.048265,-0.235791 1.552221,0.465057 3.6183,2.574186 4.720902,4.819263 1.146396,2.334246 1.135105,5.424846 -0.02868,7.845924 -1.349291,2.80704 -4.632926,5.421588 -8.379903,6.672381 -0.433607,0.144744 -0.524999,0.542463 -0.524999,2.284668 0,1.521249 0.107789,2.109414 0.386585,2.109414 0.212623,0 1.326373,-0.817269 2.475001,-1.816155 z m -8.547462,-5.957451 c -0.912825,-1.705632 -5.167158,-4.385283 -10.015647,-6.308499 -1.293336,-0.513021 -2.879586,-1.20216 -3.525,-1.531425 -1.826004,-0.93156 -1.435125,-0.168384 1.301523,2.541165 1.726866,1.709769 3.154638,2.802909 4.723399,3.616356 2.284157,1.184406 5.471225,2.20521 6.987156,2.237958 0.731649,0.01581 0.797381,-0.05328 0.52857,-0.555555 z M 37.696577,54.286146 c 0.319143,-2.90319 1.80873,-7.939377 3.104748,-10.496949 1.349439,-2.662992 4.288392,-6.784923 6.636093,-9.307233 3.002415,-3.22572 6.36759,-5.729857 10.313688,-7.674752 1.758123,-0.866517 4.006587,-2.214768 4.996587,-2.996113 2.317053,-1.828705 4.398174,-2.610373 6.986254,-2.624036 1.904714,-0.01006 1.973139,-0.03412 1.263746,-0.444534 -0.412499,-0.238646 -1.800972,-0.773153 -3.085494,-1.187792 -9.88203,-3.189883 -21.373181,-0.15975 -28.775145,7.587798 -6.773754,7.090009 -8.900739,16.995082 -5.554338,25.865785 0.873777,2.316228 2.140023,4.883202 3.028452,6.139374 l 0.636525,0.9 0.07265,-1.5 c 0.03996,-0.825 0.209262,-2.742696 0.37623,-4.261548 z m 9.771942,1.513176 c 0.813546,-0.07528 1.79533,-0.202134 2.181744,-0.281889 0.669219,-0.138126 0.647349,-0.18501 -0.460758,-0.987717 C 46.476068,52.56411 45.1556,50.200578 44.897684,46.847694 l -0.184617,-2.4 -0.950286,2.002089 c -1.362618,2.870805 -2.169698,5.985708 -2.374134,9.162894 l -0.177912,2.764983 2.389305,-1.220727 c 1.496766,-0.764721 2.94186,-1.271862 3.868479,-1.357611 z M 84.538454,48.112179 C 85.45397,45.318171 85.536131,40.104141 84.712016,37.097694 83.133543,31.339275 78.78911,25.219443 74.471156,22.671786 l -1.065696,-0.628774 0.444147,1.062991 c 0.502938,1.203698 0.28968,2.105944 -0.710763,3.007104 -0.455019,0.409862 -1.354503,0.632478 -3.269535,0.809186 -2.911506,0.268658 -5.232105,0.726108 -6.135135,1.209396 -0.947511,0.507092 -1.722534,2.599693 -1.729893,4.670788 -0.0073,2.063754 -0.08645,1.990536 2.538207,2.348847 3.595077,0.490791 8.287218,2.96121 11.659614,6.138801 2.411232,2.271951 4.185775,4.679235 5.745027,7.793511 1.307097,2.610654 1.43304,2.56344 2.591325,-0.971457 z m -8.175291,-1.189485 c -0.371463,-0.53625 -1.667907,-1.950234 -2.880987,-3.142185 -1.706244,-1.676526 -2.831478,-2.471145 -4.97004,-3.509739 -2.921184,-1.418679 -4.714443,-1.950357 -4.714443,-1.397778 0,0.563388 2.153535,2.732961 4.034706,4.064748 0.998412,0.706836 3.165294,1.996458 4.815295,2.865828 1.649999,0.86937 3.128249,1.6962 3.284999,1.837401 0.156751,0.141198 0.469692,0.256725 0.695427,0.256725 0.29289,0 0.217009,-0.279225 -0.264957,-0.975 z M 54.304295,35.626437 c 1.131129,-0.34581 2.451615,-0.628743 2.934414,-0.628743 1.019649,0 1.07982,-0.128145 1.232565,-2.625 0.08087,-1.321941 0.0085,-1.875 -0.245252,-1.875 -0.76156,0 -4.28902,2.646018 -6.728329,5.047047 l -2.55,2.509986 1.65,-0.899775 c 0.9075,-0.494874 2.57547,-1.182708 3.706603,-1.528515 z"
       style="fill:#ded1a3" />
    <path
       id="path3412"
       d="m 55.097693,104.10534 c -2.131839,-0.41061 -5.490288,-1.48095 -7.402395,-2.35916 -6.911414,-3.174304 -12.308831,-9.58954 -14.691542,-17.46199 -0.704953,-2.329155 -0.798378,-3.143583 -0.801445,-6.986496 -0.0031,-3.916596 0.07618,-4.589121 0.795921,-6.75 0.439668,-1.32 1.204408,-3.13032 1.699428,-4.022931 0.495018,-0.892611 0.900034,-1.801122 0.900034,-2.018913 0,-0.217791 -0.547224,-1.107474 -1.216053,-1.977069 -1.60078,-2.081304 -3.986566,-7.013316 -4.755635,-9.831087 -1.981996,-7.261767 -1.385461,-14.122791 1.773688,-20.4 4.392282,-8.727433 13.008267,-14.83138 23.097999,-16.36365 10.583676,-1.607282 19.451896,0.831981 25.806045,7.098127 8.512752,8.394851 10.826877,20.178875 5.819049,29.631881 l -1.333065,2.516361 1.53357,1.983639 c 1.898142,2.455209 4.230489,7.19961 5.104594,10.383642 0.514052,1.872495 0.688467,3.492678 0.793536,7.371366 0.121106,4.470804 0.0665,5.225967 -0.542296,7.5 -2.768508,10.341156 -10.773999,18.05562 -21.828803,21.03526 -1.880299,0.5068 -3.375595,0.63667 -8.15263,0.70806 -3.2175,0.0481 -6.1875,0.0224 -6.6,-0.057 z m 13.35,-2.84252 c 2.943183,-0.74529 7.384623,-2.80762 9.855456,-4.57627 2.448627,-1.752753 5.223429,-4.688634 6.855624,-7.253598 4.437847,-6.973977 5.295126,-14.265969 2.62467,-22.32537 -0.793896,-2.395968 -2.292569,-5.409888 -2.69007,-5.409888 -0.163389,0 -0.29568,0.857619 -0.29568,1.916859 0,4.017174 -1.273142,8.790963 -3.60921,13.533141 -3.172197,6.439509 -9.131337,12.779661 -14.84079,15.789666 -0.99,0.521925 -2.636742,1.743507 -3.659427,2.714625 -2.110974,2.004531 -3.917508,2.919594 -6.236418,3.158928 -2.738826,0.282672 -4.354155,-0.556098 -4.354155,-2.260926 0,-1.33113 1.112781,-2.142708 3.377742,-2.463465 1.073661,-0.152049 3.058659,-0.62601 4.411104,-1.053249 2.275368,-0.718788 2.493657,-0.859263 2.923239,-1.881186 0.590899,-1.405689 0.836808,-4.468695 0.440419,-5.485839 C 62.969226,84.945261 62.763915,84.868875 60.596679,84.678999 56.056275,84.281202 52.718934,83.153106 49.385367,80.889324 45.568308,78.297207 42.532599,74.6052 40.370667,69.92571 39.199296,67.390278 38.330085,66.473841 37.7655,67.178997 c -1.507167,1.882425 -2.562864,5.824215 -2.589486,9.668697 -0.02358,3.404601 0.565584,6.191934 2.063076,9.760449 3.510774,8.366148 11.603874,14.174987 21.458603,15.401957 2.068608,0.25756 7.393599,-0.15057 9.75,-0.74728 z m 0.05942,-12.847282 c 4.612986,-3.928107 6.38262,-5.966814 8.596537,-9.903642 3.111914,-5.533668 4.679907,-10.883703 4.688889,-15.998616 0.0062,-3.518019 -0.231366,-3.749676 -2.258088,-2.202159 -2.679276,2.045778 -6.966681,3.103629 -8.779473,2.166198 -0.948867,-0.490677 -1.473108,-1.584492 -1.155765,-2.411475 0.09143,-0.238254 0.524505,-0.667941 0.962394,-0.954855 0.687063,-0.450183 0.977637,-0.473133 2.12043,-0.167481 0.728346,0.194802 1.63332,0.354186 2.011056,0.354186 1.051983,0 3.557421,-1.365444 4.716075,-2.570226 L 80.44769,55.6476 78.87968,54.198315 c -1.568997,-1.450197 -3.182937,-2.506206 -9.081991,-5.942397 -4.858764,-2.830224 -7.793484,-5.570724 -9.614283,-8.978013 -0.760983,-1.42404 -0.770691,-1.430037 -2.25,-1.389657 -5.669561,0.154761 -10.799475,5.394198 -9.912194,10.123821 0.262583,1.399677 1.330617,2.367027 3.29816,2.987241 2.415864,0.761535 3.246429,2.230272 1.978317,3.498384 -0.873186,0.873186 -2.372247,0.772212 -3.790745,-0.255345 -3.711292,-2.688444 -5.070976,-6.619482 -3.750996,-10.844655 l 0.609197,-1.95 -0.731567,0.9 c -0.882955,1.08624 -2.868196,5.128293 -3.536253,7.2 -1.071102,3.321564 -1.752873,9.15 -1.07031,9.15 0.181131,0 1.435863,-0.54831 2.788296,-1.218468 3.879594,-1.922415 8.086686,-1.997691 8.924142,-0.159678 0.910677,1.998717 -0.75039,3.169908 -3.385807,2.387274 -0.95345,-0.283143 -1.959671,-0.382353 -2.625873,-0.258897 -1.39365,0.258261 -3.671115,1.496631 -4.670138,2.539386 -0.715786,0.74712 -0.758893,0.928524 -0.497308,2.092752 0.157527,0.7011 0.601626,1.610601 0.986887,2.021115 1.16402,1.240314 4.706499,3.285831 9.479529,5.473719 6.825747,3.12882 9.811416,5.2848 11.975754,8.647797 1.214247,1.886724 1.641807,1.953555 4.228533,0.660951 2.77776,-1.388064 4.693566,-3.920388 5.038551,-6.659991 0.246204,-1.955172 -0.530775,-3.179499 -2.713605,-4.27596 -2.239824,-1.12509 -2.927256,-2.156733 -2.248926,-3.375 0.995769,-1.788384 3.538368,-1.002639 5.528523,1.708494 1.465455,1.99635 2.017629,3.45084 2.051682,5.40438 0.04237,2.430888 -0.785844,4.540869 -2.532612,6.452115 -1.745121,1.90944 -2.979063,2.726715 -5.483916,3.63216 l -1.823037,0.658986 -0.09027,2.053158 c -0.09754,2.218398 0.08839,3.415707 0.530415,3.415707 0.153288,0 1.061966,-0.666969 2.019281,-1.482156 z M 61.63325,81.845529 c 0.0729,-0.22119 -0.659022,-1.170066 -1.626501,-2.108613 -1.752561,-1.700148 -5.287851,-3.759981 -8.809056,-5.132589 -0.9075,-0.353754 -2.562972,-1.06074 -3.678825,-1.571085 -1.115853,-0.510345 -2.107617,-0.849105 -2.203917,-0.752805 -0.305379,0.305376 1.573524,2.751513 3.442698,4.482039 3.019485,2.795508 5.858484,4.300779 9.790044,5.190792 2.103894,0.476274 2.902254,0.448398 3.085557,-0.107739 z M 37.816532,59.211714 c -0.4101,-3.489315 0.960114,-10.019205 3.059109,-14.578509 3.370567,-7.321314 10.873683,-14.790371 17.946532,-17.86506 1.206285,-0.524393 2.853009,-1.522612 3.659384,-2.218264 2.445078,-2.109348 4.376277,-2.902187 7.069137,-2.902187 2.811789,0 3.942765,0.633596 4.086195,2.289171 0.152928,1.765164 -0.759762,2.310249 -4.458342,2.662653 -1.719447,0.16383 -3.820884,0.499804 -4.669857,0.746607 -1.393349,0.405058 -1.609049,0.587567 -2.216154,1.875151 -0.784428,1.663667 -1.153293,4.953527 -0.626555,5.588204 0.192315,0.231729 1.061915,0.510312 1.932444,0.619077 2.409911,0.301101 6.225099,1.736151 8.674695,3.262917 3.980667,2.481042 7.935231,7.037232 9.688452,11.1624 0.458465,1.078734 0.980399,1.913652 1.159851,1.855371 0.547617,-0.177855 1.60746,-2.638077 2.146368,-4.982385 1.543377,-6.713835 -1.043211,-15.091245 -6.419032,-20.789897 -3.097872,-3.283907 -6.532004,-5.386439 -11.451065,-7.010858 -2.388649,-0.788802 -2.872705,-0.84234 -7.650001,-0.846106 -4.721667,-0.0037 -5.29887,0.05723 -7.780787,0.82169 -10.52695,3.242412 -17.7087,10.797788 -19.81002,20.840619 -1.262107,6.03198 0.05165,12.770322 3.650447,18.723414 1.700142,2.812359 2.277246,3.026628 2.009199,0.745992 z m 39.751479,-11.08902 c -0.803616,-1.546323 -3.659769,-4.741383 -5.423928,-6.067527 -2.182647,-1.640724 -4.820655,-3.033687 -6.933492,-3.661131 -2.718489,-0.807306 -2.831817,-0.09682 -0.404574,2.536428 1.524315,1.653687 3.651105,3.115758 7.439086,5.114025 1.593575,0.840657 3.348575,1.803528 3.899999,2.139714 1.377783,0.839991 1.880127,0.818277 1.422909,-0.06151 z M 50.75672,37.639719 c 1.367841,-0.859998 3.478746,-1.600698 5.811216,-2.039112 0.891132,-0.167499 1.802382,-0.455706 2.025,-0.640461 0.458913,-0.380865 0.59199,-5.362452 0.14325,-5.362452 -0.143832,0 -1.325082,0.690381 -2.625,1.534182 -2.73359,1.774419 -8.015529,6.995589 -9.083345,8.978838 l -0.719853,1.33698 1.628879,-1.529589 c 0.895884,-0.841275 2.164819,-1.866549 2.819853,-2.278386 z"
       style="fill:#ceb453" />
    <path
       id="path3410"
       d="M 54.77351,103.71317 C 45.754949,102.0646 39.345263,97.429641 35.146703,89.520666 34.42466,88.160532 33.468665,85.832694 33.022268,84.347694 c -0.708612,-2.357298 -0.813972,-3.233094 -0.830088,-6.9 -0.02085,-4.74654 0.497149,-7.058958 2.383536,-10.640184 0.562086,-1.0671 1.021977,-2.110611 1.021977,-2.318913 0,-0.208302 -0.547224,-1.090221 -1.216053,-1.959816 -1.60221,-2.083164 -3.987543,-7.015647 -4.754276,-9.831087 -1.954733,-7.177749 -1.371617,-14.146158 1.694519,-20.25 1.4787,-2.94369 2.566299,-4.466083 5.006337,-7.007743 5.760312,-6.000214 12.679086,-8.853428 23.097075,-9.524937 5.367495,-0.345971 11.16441,0.771219 15.161067,2.921864 12.336465,6.638383 17.679532,22.289786 11.545587,33.820406 l -1.342227,2.523129 1.53357,1.983639 c 1.91044,2.471115 4.238298,7.221822 5.088012,10.383642 0.893349,3.324183 1.154298,11.102475 0.470391,14.021193 -1.944954,8.300496 -6.961404,14.749206 -14.455965,18.583333 -3.30687,1.69175 -5.640968,2.49779 -9.0465,3.12405 -2.966022,0.54543 -11.510907,0.81982 -13.60572,0.4369 z m 12.965916,-1.80228 c 14.350575,-3.616784 23.93823,-17.605517 21.122568,-30.818582 -0.835682,-3.921612 -3.031161,-9.394614 -3.768621,-9.394614 -0.162624,0 -0.295866,0.77625 -0.296091,1.725 -9e-4,3.811146 -1.369589,9.133995 -3.374268,13.122618 -3.447762,6.859866 -8.893101,12.574899 -15.045825,15.79101 -1.514157,0.791469 -2.994948,1.877256 -4.099056,3.005625 -2.422623,2.475855 -5.306973,3.617706 -7.906536,3.130026 -1.330179,-0.249543 -1.973904,-0.885216 -1.973904,-1.949211 0,-1.222404 0.827226,-1.773855 3.165495,-2.110194 2.386053,-0.343215 5.294046,-1.068756 6.416892,-1.60101 1.210626,-0.573861 1.957479,-2.424465 1.962924,-4.863864 0.0083,-3.737097 0.112224,-3.63279 -3.81477,-3.83043 C 57.516071,83.985798 56.23628,83.762802 54.497693,83.136171 48.24521,80.882625 43.84211,76.825035 40.637207,70.363308 c -1.479351,-2.982666 -2.302425,-3.895335 -2.871708,-3.184311 -2.301183,2.874138 -3.284907,9.843111 -2.090634,14.810607 0.674133,2.804004 2.237724,6.476226 3.687516,8.660427 3.899193,5.874387 10.870927,10.323419 18.08457,11.540719 2.776908,0.4686 7.872507,0.33005 10.292476,-0.27986 z m -0.40092,-12.019526 c 1.841589,-1.122792 6.401532,-5.814567 8.030322,-8.262486 2.099874,-3.155919 4.387692,-7.98129 5.396076,-11.381184 0.625317,-2.108331 0.834753,-3.569853 0.955743,-6.669471 0.17727,-4.541544 -0.01635,-4.926297 -1.795932,-3.568938 -1.751361,1.335828 -4.274721,2.310792 -6.43989,2.488215 -1.799127,0.147426 -2.135454,0.08887 -2.878701,-0.501243 -1.065681,-0.846114 -1.00746,-2.034636 0.130818,-2.670591 0.672636,-0.375801 1.029675,-0.383277 2.416458,-0.05059 1.583604,0.379899 1.675005,0.365832 3.410751,-0.525024 1.906506,-0.978492 3.733542,-2.532156 3.733542,-3.174903 0,-0.647772 -3.821154,-3.490083 -9.147471,-6.804213 -6.412986,-3.990276 -8.743052,-6.24432 -10.981548,-10.62324 -0.418611,-0.818883 -0.586032,-0.895683 -1.857558,-0.852111 -5.804489,0.198906 -11.176668,5.384511 -10.627326,10.258251 0.206905,1.835646 1.002348,2.736708 3.200826,3.625821 2.260998,0.914394 2.864623,1.622379 2.319783,2.720844 -0.802295,1.617531 -3.611178,0.685119 -5.731638,-1.902621 -1.452555,-1.772652 -1.975068,-3.162309 -1.975068,-5.252829 0,-5.528259 4.615464,-9.843921 11.439607,-10.696542 0.917513,-0.114636 1.804958,-0.296715 1.9721,-0.404622 0.167139,-0.107904 0.399411,-1.647441 0.516156,-3.421191 0.188082,-2.85754 0.157008,-3.225 -0.272697,-3.225 -1.749755,0 -7.949429,5.005656 -10.843514,8.755119 -3.001267,3.888324 -5.892117,9.736914 -6.839101,13.836438 -0.591251,2.559552 -0.947153,6.965121 -0.580959,7.191444 0.150423,0.09296 1.405968,-0.393927 2.790103,-1.081986 2.374263,-1.180254 2.664722,-1.251015 5.135145,-1.251015 2.853381,0 3.883161,0.473763 3.883161,1.786497 0,1.343385 -1.51602,1.742316 -3.903192,1.027104 -0.91233,-0.273342 -1.409091,-0.241311 -2.650053,0.170871 -1.699143,0.564363 -4.452834,2.44428 -4.7058,3.212598 -0.09001,0.27339 -0.0052,1.126113 0.188328,1.894938 0.31755,1.261107 0.575478,1.556394 2.636352,3.018207 1.256399,0.891186 4.849364,2.901315 7.984365,4.466955 6.815313,3.403614 9.984858,5.915112 11.911047,9.438123 0.629127,1.150677 1.326999,1.190475 3.460182,0.197325 3.376365,-1.571943 5.907084,-4.9248 5.896923,-7.812618 -0.0078,-2.228496 -0.642282,-3.158712 -2.942784,-4.314714 -1.917192,-0.963393 -2.139558,-1.247175 -2.015472,-2.572173 0.15051,-1.607172 2.0673,-1.435872 3.982896,0.355947 2.204915,2.062437 3.085869,3.91977 3.097695,6.53094 0.0204,4.501668 -3.16098,8.130741 -8.540487,9.742344 l -1.650001,0.494313 0.07004,2.98167 c 0.03852,1.63992 0.07227,3.082923 0.075,3.206673 0.0088,0.396633 0.727152,0.239715 1.745778,-0.38133 z m -5.040813,-7.87806 c 0,-0.973941 -3.018335,-3.83094 -5.439557,-5.148801 -1.094257,-0.595599 -3.996756,-1.897443 -6.450001,-2.892984 -2.453243,-0.995541 -4.629192,-1.883862 -4.835442,-1.974048 -0.744515,-0.325545 -0.355083,0.852804 0.797452,2.412933 3.397923,4.599597 9.715731,8.201226 14.502548,8.267547 1.28934,0.01785 1.425,-0.04541 1.425,-0.664647 z M 38.086892,56.447694 c 0.184911,-5.05443 0.749091,-7.261944 3.066876,-12 1.928877,-3.94305 3.667125,-6.296136 7.284372,-9.86094 3.18018,-3.134076 5.991618,-5.115668 9.938215,-7.004771 1.579235,-0.755927 3.540251,-1.973379 4.357808,-2.705447 2.494365,-2.233534 4.107301,-2.909903 6.963555,-2.920097 2.186367,-0.0078 2.533426,0.06952 3.225001,0.718549 0.913271,0.857082 0.9887,1.792296 0.221018,2.74034 -0.492318,0.607989 -0.922761,0.708443 -3.868683,0.902845 -1.823103,0.120306 -4.044144,0.430784 -4.935644,0.689951 -2.259034,0.656719 -3.014229,1.996455 -3.189286,5.657859 -0.145182,3.036645 -0.185637,2.994585 3.209934,3.337305 2.392519,0.241479 6.252183,1.792641 8.990964,3.61338 3.528195,2.345538 6.995949,6.505287 8.683425,10.41621 0.422394,0.978945 0.913173,1.735842 1.090617,1.681989 0.54594,-0.165684 1.61727,-2.653242 2.148216,-4.988007 1.25292,-5.509566 -0.211155,-12.150576 -3.8985,-17.683507 -2.572911,-3.8607 -6.113169,-6.839045 -10.782326,-9.070947 -3.942633,-1.884618 -6.575404,-2.461313 -11.294761,-2.474064 -3.546465,-0.0096 -4.372208,0.08779 -6.641571,0.783204 -3.591762,1.100639 -5.659125,2.061406 -8.483418,3.942507 -10.699428,7.126281 -15.117324,19.837486 -10.835145,31.174951 1.370415,3.628293 3.89823,7.994856 4.349043,7.512555 0.135651,-0.145125 0.31578,-2.153865 0.40029,-4.463865 z m 39.810802,-7.686903 c 0,-0.668145 -2.67781,-4.069485 -4.722019,-5.997888 -2.47452,-2.334339 -4.479186,-3.53649 -7.695555,-4.614852 -2.072496,-0.694848 -2.422005,-0.739353 -2.804286,-0.357069 -0.5514,0.5514 -0.211694,1.249767 1.523712,3.132462 1.695984,1.839924 3.199782,2.830908 8.598147,5.666073 5.03094,2.642196 5.100001,2.671599 5.100001,2.171274 z"
       style="fill:#caab39" />
    <path
       id="path3408"
       d="m 53.572695,103.27921 c -0.06875,-0.0652 -0.800002,-0.20849 -1.625002,-0.31849 -3.16851,-0.42248 -7.881306,-2.8774 -10.84362,-5.648493 -3.819378,-3.572844 -6.599019,-8.03184 -8.081805,-12.964533 -0.708612,-2.357298 -0.813972,-3.233094 -0.830088,-6.9 -0.02085,-4.74654 0.497149,-7.058958 2.383536,-10.640184 0.562086,-1.0671 1.021977,-2.110611 1.021977,-2.318913 0,-0.208302 -0.547224,-1.090221 -1.216053,-1.959816 -1.60221,-2.083164 -3.987543,-7.015647 -4.754276,-9.831087 -0.337011,-1.2375 -0.775678,-3.586446 -0.974815,-5.21988 -0.760682,-6.239547 0.945576,-13.034892 4.640211,-18.48012 1.348137,-1.986907 4.890606,-5.576056 6.984921,-7.076956 1.661352,-1.190618 5.62365,-3.123044 6.403569,-3.123044 0.731709,0 0.237483,1.22844 -0.808557,2.009732 -0.61875,0.462147 -1.17,0.941518 -1.224999,1.065268 -0.055,0.12375 -0.222723,0.225 -0.37272,0.225 -0.273677,0 -0.439989,0.128152 -3.030096,2.334855 -5.97312,5.088935 -9.522987,12.556713 -9.540693,20.070531 -0.0077,3.258522 0.509247,5.940483 1.792104,9.297975 1.011057,2.646135 3.562377,7.146639 4.051404,7.146639 0.177447,0 0.370911,-1.715724 0.473586,-4.2 0.125139,-3.02781 0.362988,-4.869822 0.852223,-6.6 0.831792,-2.941632 2.827571,-7.251615 4.494765,-9.706668 1.181523,-1.739871 4.422909,-5.138034 4.904426,-5.141646 0.61642,-0.0046 0.09438,1.841688 -0.975,3.448314 -0.658949,0.99 -1.19852,1.96875 -1.199046,2.175 -6e-4,0.20625 -0.158454,0.375 -0.350955,0.375 -0.192498,0 -0.270987,0.07901 -0.174414,0.175584 0.09657,0.09657 -0.284874,0.961239 -0.847659,1.921482 -1.326003,2.262483 -2.661851,5.625102 -3.255375,8.194491 -0.619025,2.679786 -0.948125,6.964521 -0.553652,7.208319 0.165441,0.102249 1.074135,-0.23295 2.01932,-0.744882 2.407798,-1.304121 3.926974,-1.688019 5.861781,-1.481292 l 1.65,0.176298 0.173286,1.298454 0.173283,1.298454 -1.686435,-0.195732 c -2.011293,-0.233436 -4.088739,0.439695 -6.175872,2.001093 -1.58172,1.183293 -1.782117,1.74996 -1.254633,3.547731 0.362577,1.235736 0.647859,1.520007 3.370521,3.358572 1.635933,1.104717 3.891393,2.511222 5.012136,3.125571 1.876455,1.028601 2.037714,1.194951 2.037714,2.102076 l 0,0.985083 -1.35,-0.40629 c -0.7425,-0.223461 -1.35,-0.357651 -1.35,-0.2982 0,0.05945 -0.890085,-0.291261 -1.977966,-0.779358 -2.305841,-1.034562 -2.222034,-1.018161 -2.222034,-0.434856 0,0.975489 2.844048,4.327071 5.941755,7.002084 2.682357,2.316345 2.510169,3.387672 -0.313611,1.951233 -0.452022,-0.229938 -0.867531,-0.381588 -0.923352,-0.336993 -0.159852,0.127695 -2.326026,-1.537611 -3.757953,-2.88903 -2.110479,-1.991823 -3.940407,-4.555059 -5.507325,-7.714278 -1.479351,-2.982666 -2.302425,-3.895335 -2.871708,-3.184311 -2.301183,2.874138 -3.284907,9.843111 -2.090634,14.810607 1.470447,6.116214 5.081586,11.709396 9.644544,14.938137 1.58517,1.121664 5.74422,3.600849 6.178284,3.682849 0.0825,0.0156 0.92625,0.37163 1.875,0.79121 1.292913,0.57179 1.725,0.9173 1.725,1.37938 0,0.44587 -0.193752,0.61651 -0.699999,0.61651 -0.385002,0 -0.756252,-0.0533 -0.825,-0.11848 z m 20.895227,-2.7842 c -0.145434,-0.37708 -0.01545,-0.687287 0.417907,-0.997316 5.064419,-3.623208 8.809569,-7.368783 10.798766,-10.8 3.981924,-6.868512 4.661274,-13.856742 2.098848,-21.590112 -0.793896,-2.395968 -2.292569,-5.409888 -2.69007,-5.409888 -0.162624,0 -0.295866,0.77625 -0.296091,1.725 -0.0018,7.136262 -4.048068,16.497042 -9.367113,21.669654 -1.021047,0.99294 -1.963557,1.805346 -2.094462,1.805346 -0.572934,0 -0.165816,-1.788534 0.65364,-2.871558 0.49041,-0.648144 0.89541,-1.335942 0.9,-1.528443 0.0046,-0.192498 0.109596,-0.394998 0.233346,-0.45 0.759048,-0.337353 4.673019,-8.520708 5.643756,-11.799999 0.623217,-2.105313 0.833382,-3.574293 0.954198,-6.669471 0.17727,-4.541544 -0.01635,-4.926297 -1.795932,-3.568938 -1.990599,1.518303 -4.360107,2.37807 -6.455535,2.342364 -2.324307,-0.03961 -2.833305,-0.38079 -2.711655,-1.817631 0.07919,-0.935412 0.209445,-1.089222 1.070238,-1.263825 0.53904,-0.109335 1.035027,-0.109875 1.102194,-0.0012 0.06717,0.108678 0.537039,0.229212 1.044159,0.267855 1.668627,0.127149 6.323577,-2.782008 6.323577,-3.951978 0,-0.489228 -3.09866,-2.995686 -6,-4.853307 -1.2375,-0.792327 -2.349183,-1.585332 -2.470407,-1.76223 -0.121223,-0.176901 -0.222474,-0.214947 -0.225,-0.08455 -0.0024,0.130398 -0.544593,-0.262536 -1.204592,-0.873192 -0.85756,-0.793443 -1.200001,-1.35336 -1.200001,-1.96209 0,-0.984063 0.04408,-0.999561 1.176864,-0.413775 0.465885,0.240918 0.93168,0.353418 1.035103,0.249999 0.103418,-0.103419 0.188033,-0.008 0.188033,0.211965 0,0.219999 0.08905,0.310953 0.197881,0.202119 0.108833,-0.108834 1.478244,0.476166 3.043133,1.300002 3.16837,1.667985 3.058987,1.626468 3.058987,1.160976 0,-1.103244 -4.723414,-6.362565 -7.989187,-8.895624 -1.770564,-1.373319 -2.064692,-2.744946 -0.454967,-2.121681 0.436785,0.169119 1.054233,0.359838 1.372107,0.423819 0.317871,0.06398 0.655371,0.220746 0.75,0.34836 0.09462,0.127617 0.679497,0.490182 1.29971,0.805707 2.898054,1.474323 6.985654,6.149358 8.874927,10.150353 0.603576,1.278216 1.232409,2.283798 1.39741,2.234628 0.52485,-0.156405 1.603311,-2.682855 2.125586,-4.979493 1.922304,-8.4531 -2.706159,-19.187342 -10.541589,-24.44784 -0.833802,-0.559792 -3.027552,-1.781452 -4.875,-2.714801 -2.637756,-1.332619 -3.358998,-1.829318 -3.358998,-2.313242 0,-0.574126 0.128412,-0.604644 1.878918,-0.446535 2.258118,0.203959 3.913695,0.759946 6.518337,2.189034 12.079443,6.62762 17.299836,22.266865 11.237001,33.663808 l -1.342227,2.523129 1.53357,1.983639 c 1.91044,2.471115 4.238298,7.221822 5.088012,10.383642 0.893349,3.324183 1.154298,11.102475 0.470391,14.021193 -1.867386,7.969452 -7.257596,15.095565 -13.759926,18.191274 -2.647605,1.260503 -3.39327,1.410473 -3.653847,0.734853 z M 53.597693,97.906902 c -0.951327,-0.473268 -1.196625,-1.95036 -0.418397,-2.519415 0.824409,-0.602823 0.966693,-0.489423 1.181267,0.941454 0.2688,1.792494 0.152391,2.033286 -0.76287,1.577961 z M 72.421502,79.472694 c -0.0661,-0.28875 0.193998,-1.384824 0.578004,-2.435718 1.145289,-3.134292 0.820347,-5.684055 -0.912762,-7.162299 -0.613749,-0.523494 -0.789051,-0.945612 -0.789051,-1.899999 0,-0.674841 0.118665,-1.181985 0.2637,-1.126983 0.72357,0.274389 2.702451,2.397639 3.328944,3.571803 0.857091,1.606347 0.99243,4.488735 0.294783,6.278196 -0.03216,0.0825 -0.04249,0.25125 -0.02295,0.375 0.01953,0.12375 -0.107442,0.225 -0.28218,0.225 -0.174738,0 -0.23427,0.135 -0.132293,0.3 0.101975,0.165 0.01995,0.3 -0.182296,0.3 -0.202238,0 -0.286782,0.08092 -0.187874,0.179829 0.158702,0.158703 -1.417465,1.920171 -1.718176,1.920171 -0.06471,0 -0.171744,-0.23625 -0.237846,-0.525 z M 49.2338,53.322711 c -1.365822,-0.85203 -2.920656,-2.540469 -2.618073,-2.843049 0.10008,-0.100083 0.03493,-0.181968 -0.144768,-0.181968 -0.874185,0 -1.291071,-4.535679 -0.579051,-6.3 0.16647,-0.4125 0.280875,-0.85125 0.254229,-0.975 -0.02664,-0.12375 0.109056,-0.225 0.301557,-0.225 0.192498,0 0.267987,-0.08201 0.167748,-0.182253 -0.100239,-0.100236 0.300747,-0.70428 0.891081,-1.342314 1.713813,-1.852305 2.138694,-0.911151 0.844101,1.869777 -1.361229,2.924076 -0.866964,6.730431 1.003986,7.731732 0.527364,0.282237 1.221312,2.544828 0.883974,2.882166 -0.06527,0.06527 -0.517425,-0.130068 -1.004784,-0.434091 z m 19.288894,-27.230673 -1.425001,-0.127219 0,-1.771999 0,-1.772 1.271869,-0.342478 c 3.537938,-0.952668 6.556271,1.136191 4.791293,3.315848 -0.580383,0.716741 -2.012676,0.932241 -4.638161,0.697848 z"
       style="fill:#b29c58" />
    <path
       id="path3406"
       d="M 51.625652,102.80818 C 43.269165,100.61678 36.634799,94.171233 33.620193,85.315176 31.524564,79.158813 32.062775,71.81691 34.997661,66.524763 c 0.495017,-0.892611 0.900033,-1.801122 0.900033,-2.018913 0,-0.217791 -0.547224,-1.107474 -1.216054,-1.977069 C 32.885811,60.193875 30.60668,55.34526 29.704609,51.94065 28.622525,47.85663 28.553711,41.519607 29.551574,37.847694 c 0.727939,-2.678652 2.518989,-6.618645 3.990243,-8.777823 2.403091,-3.526716 7.133437,-7.635522 10.772538,-9.35709 2.320005,-1.097537 2.757348,-1.139094 2.629204,-0.24983 -0.06446,0.447285 -0.978945,1.279686 -2.791056,2.540515 -12.620526,8.781097 -16.255935,22.875511 -9.177954,35.582758 2.350386,4.219695 3.492249,4.905678 3.13719,1.88469 -0.102828,-0.874914 -0.02676,-2.993055 0.169068,-4.706985 0.571934,-5.005986 2.526918,-10.191384 5.529411,-14.666235 1.025496,-1.528374 4.047075,-4.8 4.433142,-4.8 0.729177,0 0.05582,1.871388 -1.655994,4.602345 -2.299884,3.669138 -3.464382,5.949297 -4.467513,8.747655 -0.79134,2.207541 -1.725363,7.008183 -1.717566,8.827866 0.0084,1.960089 0.273996,2.014044 2.878301,0.584721 2.221677,-1.219329 2.503243,-1.29645 4.761754,-1.304274 l 2.40045,-0.0083 0.174339,1.287933 0.174336,1.28793 -2.050983,-0.202098 c -1.897465,-0.186972 -2.191024,-0.132834 -3.921886,0.723261 -1.028996,0.508947 -2.316095,1.334844 -2.860218,1.835328 -0.890229,0.818832 -0.968841,1.023033 -0.784905,2.038809 0.112422,0.620859 0.378432,1.47321 0.591129,1.894107 0.497133,0.98376 3.043896,2.756289 7.108089,4.947183 3.090492,1.665996 3.225,1.779519 3.225,2.721858 l 0,0.983349 -1.575,-0.467562 c -0.866249,-0.257157 -2.365317,-0.866424 -3.331262,-1.35393 -1.998369,-1.008555 -2.830056,-0.962967 -2.269069,0.12438 0.843382,1.6347 2.989629,4.055379 5.435464,6.130467 1.692896,1.436286 2.639867,2.454891 2.639867,2.839566 0,0.746088 -0.647772,0.588642 -2.97002,-0.721893 -3.600433,-2.031861 -7.310548,-6.387348 -9.461521,-11.107353 -1.015644,-2.228679 -1.983342,-3.301914 -2.721738,-3.018564 -0.497315,0.190836 -2.046171,3.686124 -2.57334,5.807229 -0.583479,2.347674 -0.50628,6.893376 0.163041,9.6 1.266693,5.122326 3.416254,8.971311 7.050651,12.62484 2.509464,2.522676 5.119839,4.193991 9.525543,6.098813 2.296056,0.99271 2.958315,1.4126 3.033249,1.92317 0.120474,0.82085 -0.487332,0.83217 -3.417906,0.0637 z m 22.854138,-2.28502 c -0.100154,-0.261 -0.182097,-0.52235 -0.182097,-0.580785 0,-0.05843 1.169019,-0.891141 2.597817,-1.850463 6.828423,-4.584714 10.995069,-10.818384 12.381834,-18.524316 0.891234,-4.952373 -0.171885,-11.031894 -2.875701,-16.444902 -1.450902,-2.90469 -1.783203,-2.704194 -1.988868,1.2 -0.293589,5.573301 -2.122941,11.037024 -5.35614,15.997194 -1.624308,2.491905 -5.160807,6.577806 -5.693339,6.577806 -0.760405,0 -0.110061,-1.824387 1.487511,-4.172868 4.849545,-7.128978 7.231401,-13.715778 7.242185,-20.027595 0.0072,-4.235637 -0.176702,-4.394403 -2.889513,-2.494074 -2.00036,1.401258 -4.076853,2.094537 -6.273504,2.094537 -1.822334,0 -2.315513,-0.42018 -2.177751,-1.855404 l 0.09547,-0.994596 2.154316,0.08767 c 1.456643,0.05928 2.52044,-0.06531 3.28487,-0.384708 1.622388,-0.677877 4.310814,-2.832831 4.310814,-3.455406 0,-0.699018 -3.346391,-3.392049 -6.9,-5.55282 -3.595779,-2.186415 -4.5,-3.010434 -4.5,-4.100862 0,-0.46413 0.05065,-0.843873 0.112548,-0.843873 0.353118,0 5.0961,2.307513 6.526695,3.175308 0.929085,0.56358 1.840336,1.024692 2.025,1.024692 1.684809,0 -2.657877,-5.497965 -6.883395,-8.71458 -2.049405,-1.560078 -2.915693,-2.650575 -2.464242,-3.102024 0.274683,-0.274686 2.600697,0.788472 4.624422,2.113698 3.497637,2.29041 6.770982,6.244929 8.66679,10.47033 0.476898,1.062918 1.050231,1.932576 1.27407,1.932576 0.448323,0 1.178547,-1.370208 2.078424,-3.9 0.856554,-2.407998 1.056402,-7.101327 0.422731,-9.927582 -1.513126,-6.748737 -5.668984,-12.899969 -11.08522,-16.407621 -1.128695,-0.730965 -3.356196,-1.896905 -4.949999,-2.590979 -2.351218,-1.023914 -2.917005,-1.394061 -2.999511,-1.962326 -0.09924,-0.683508 -0.06024,-0.695502 1.619685,-0.498061 3.791385,0.445603 8.628333,3.073959 12.241905,6.652147 5.135747,5.085457 7.990098,11.771626 7.990098,18.716389 0,4.015179 -0.738022,7.02135 -2.573937,10.484391 l -1.334035,2.516361 1.525905,1.976589 c 1.921548,2.489085 4.275255,7.264383 5.121489,10.390692 0.501489,1.852695 0.679893,3.528819 0.782316,7.35 0.117279,4.375503 0.05692,5.245935 -0.520029,7.49985 -1.564398,6.111447 -4.986252,11.256645 -10.006392,15.0459 -2.261679,1.707138 -5.580372,3.553455 -6.388221,3.554015 -0.188598,1.3e-4 -0.424848,-0.21331 -0.525,-0.4743 z M 53.597693,97.906902 c -0.951327,-0.473268 -1.196625,-1.95036 -0.418397,-2.519415 0.824409,-0.602823 0.966693,-0.489423 1.181267,0.941454 0.2688,1.792494 0.152391,2.033286 -0.76287,1.577961 z M 72.421289,79.47159 c -0.06598,-0.288144 0.194211,-1.38372 0.578217,-2.434614 1.145289,-3.134292 0.820347,-5.684055 -0.912762,-7.162299 -0.608792,-0.519264 -0.789051,-0.947607 -0.789051,-1.875 0,-0.661089 0.106893,-1.201983 0.237537,-1.201983 0.130647,0 0.798462,0.57375 1.484037,1.275 2.670351,2.73141 3.227406,6.130323 1.553664,9.479781 -0.996849,1.994868 -1.941372,2.837319 -2.151642,1.919115 z M 49.2338,53.326497 c -4.142433,-2.566422 -4.841928,-8.72685 -1.407195,-12.393135 1.418115,-1.513716 1.701342,-0.319479 0.52402,2.209542 -1.36123,2.924076 -0.866965,6.730431 1.003985,7.731732 0.527364,0.282237 1.221313,2.544828 0.883975,2.882166 -0.06527,0.06527 -0.517425,-0.128364 -1.004784,-0.430305 z m 17.863893,-29.114702 0,-1.785899 1.125,-0.312428 c 1.40032,-0.388888 1.748577,-0.389198 3.139879,-0.0028 1.434302,0.398342 2.035122,1.015787 2.035122,2.091433 0,1.362245 -0.921118,1.795583 -3.816754,1.795583 l -2.483247,0 0,-1.785899 z"
       style="fill:#ae902a" />
    <path
       id="path3404"
       d="M 45.64325,100.05859 C 43.398698,98.858724 41.997962,97.738023 39.772607,95.361609 34.914659,90.173901 32.519042,84.220053 32.50433,77.297694 c -0.0098,-4.610292 1.073173,-8.473299 3.436194,-12.2571 0.32184,-0.515346 0.21012,-0.798507 -0.864972,-2.19234 -1.671657,-2.167269 -3.782091,-6.213144 -4.677927,-8.967969 -0.405532,-1.247076 -0.973922,-3.803775 -1.263087,-5.681556 -0.455219,-2.956092 -0.476495,-3.790668 -0.158586,-6.22059 0.690564,-5.278275 2.190195,-9.253044 4.942983,-13.101346 1.379046,-1.927863 4.360932,-4.92777 5.50821,-5.541503 1.096807,-0.586734 1.201044,0.365181 0.178818,1.633013 -5.137395,6.371743 -6.711675,9.34855 -7.921821,14.979391 -0.524256,2.439387 -0.457392,7.354464 0.133365,9.803424 1.103397,4.57407 4.642155,11.636598 5.957583,11.889927 0.46944,0.09041 0.522834,-0.214404 0.524868,-2.996355 0.0037,-4.992486 1.071696,-9.808548 2.939841,-13.256457 l 0.790764,-1.459461 0.257109,0.992217 c 0.190863,0.736566 0.09532,1.504845 -0.370815,2.981799 -0.953001,3.019608 -1.519164,6.385167 -1.519164,9.030711 0,2.756265 0.193852,2.96076 1.952889,2.060106 l 1.197111,-0.612939 0.104611,0.67524 c 0.07762,0.501 -0.251392,0.975729 -1.275,1.839735 -1.207696,1.019385 -1.379611,1.311336 -1.379611,2.342907 0,1.73364 0.63705,2.971401 2.180073,4.235793 1.619991,1.327461 2.07744,2.631063 1.245753,3.550062 -0.50778,0.561093 -0.507122,0.63471 0.01518,1.704852 0.606132,1.241886 1.093353,3.368439 0.771757,3.368439 -0.542029,0 -2.938536,-3.441075 -4.122625,-5.919549 -2.083782,-4.361673 -3.11855,-4.727826 -4.554854,-1.611729 -1.806829,3.919968 -2.245815,8.000859 -1.361905,12.660468 1.2255,6.460311 4.818304,12.226482 10.174152,16.328733 1.680297,1.287003 2.252466,1.905198 2.252466,2.433663 0,0.87506 -0.419319,0.88993 -1.954443,0.06931 z m 34.954443,-3.346123 c 0,-0.399648 0.599113,-1.401759 1.394605,-2.332704 3.59787,-4.210491 5.916582,-8.416701 7.003784,-12.705057 0.900154,-3.55056 0.835492,-8.50473 -0.161441,-12.369168 -0.842871,-3.267234 -3.219274,-8.507844 -3.857962,-8.507844 -0.301107,0 -0.463185,0.7644 -0.620202,2.925 -0.26016,3.579906 -0.771987,6.134214 -1.819362,9.079671 -0.877374,2.467359 -2.556588,5.68713 -3.278487,6.286254 -0.874674,0.725916 -0.522723,-1.697853 0.747987,-5.151147 1.899282,-5.161509 2.711283,-10.235091 2.174409,-13.586286 -0.303186,-1.892514 -0.72738,-1.987044 -2.764623,-0.61608 -1.837524,1.236561 -2.418708,1.328925 -2.418708,0.384387 0,-0.463623 0.52947,-1.100694 1.673451,-2.013543 2.603937,-2.077827 2.701326,-2.704101 0.665913,-4.282212 -2.388912,-1.852191 -3.239364,-2.84358 -3.239364,-3.776196 l 0,-0.919233 1.063206,0.444237 c 2.091978,0.874083 2.04786,-0.04265 -0.160848,-3.342402 -1.293065,-1.931808 -2.052744,-4.03245 -1.458293,-4.03245 0.389499,0 2.822201,2.547522 3.826217,4.006803 0.510318,0.741723 1.471776,2.438625 2.136576,3.770892 0.6648,1.332267 1.387734,2.422305 1.606521,2.422305 0.530808,0 2.203414,-3.679347 2.583357,-5.682795 0.434475,-2.290968 0.36609,-7.064082 -0.131337,-9.167205 -1.4079,-5.952597 -5.189601,-11.456417 -11.234157,-16.35 -0.976332,-0.790425 -1.270296,-1.220819 -1.189101,-1.740973 l 0.107859,-0.690972 1.8,0.902057 c 2.332965,1.169149 5.399442,3.712018 7.345149,6.090948 1.896282,2.318501 4.558533,7.71047 5.302284,10.73894 0.384373,1.56513 0.550348,3.345792 0.545269,5.85 -0.0084,4.158195 -0.608232,6.575679 -2.57061,10.360743 -0.644652,1.24341 -1.172091,2.350008 -1.172091,2.459112 0,0.109104 0.697536,1.116771 1.550079,2.239257 0.852543,1.122489 2.190035,3.390888 2.972208,5.040888 3.842052,8.104848 3.951543,18.130407 0.276912,25.355754 -1.780492,3.50094 -5.636919,8.026089 -7.787977,9.138441 -0.889361,0.459909 -0.911223,0.454404 -0.911223,-0.229422 z"
       style="fill:#8c6e10" />
    <path
       id="path3402"
       d="m 38.464205,93.422694 c -1.780083,-2.031591 -3.823262,-5.998839 -4.837761,-9.393492 -0.679992,-2.27535 -0.805272,-3.272229 -0.827106,-6.581508 -0.02157,-3.269862 0.08579,-4.261833 0.664518,-6.139428 0.725664,-2.35434 2.206674,-5.534769 2.727123,-5.856423 0.629403,-0.388992 0.263025,-1.379892 -1.243545,-3.363261 -4.17933,-5.502006 -6.541497,-14.067246 -5.662233,-20.531307 0.5895,-4.333818 2.051079,-8.416005 4.002474,-11.178897 l 0.613987,-0.869317 0.254109,0.686919 c 0.189399,0.511993 -0.04559,1.459126 -0.922776,3.719317 -1.596963,4.114785 -2.244744,7.226397 -2.223876,10.682397 0.02985,4.942074 1.481088,9.697731 4.495695,14.732166 2.144642,3.581577 2.525697,5.593083 1.432137,7.559949 -3.856806,6.936813 -3.14134,15.909048 1.94217,24.355542 2.269758,3.771315 2.039673,4.97874 -0.414915,2.177343 z M 85.997693,90.83922 c 0,-0.472158 0.538875,-2.008401 1.197501,-3.413871 1.315392,-2.806974 2.545308,-7.151808 2.837958,-10.025445 0.4033,-3.960132 -0.916842,-9.798762 -3.273756,-14.478972 -1.916319,-3.805299 -2.861702,-3.406545 -2.861702,1.207041 0,1.523346 -0.06534,2.70438 -0.145201,2.62452 -0.07986,-0.07986 -0.347178,-2.29611 -0.594036,-4.925001 -0.24686,-2.628888 -0.536759,-5.671962 -0.644219,-6.762381 -0.191676,-1.944939 -0.180807,-1.986243 0.572334,-2.17527 0.628056,-0.157632 0.935838,-0.628638 1.691876,-2.589114 1.357084,-3.519027 1.604026,-5.063151 1.459125,-9.123873 -0.119394,-3.34596 -0.218436,-3.851559 -1.269212,-6.47916 -1.226779,-3.067719 -1.586206,-3.749931 -3.793357,-7.2 -1.419888,-2.219473 -2.097941,-3.9 -1.573556,-3.9 0.413631,0 2.897184,2.678981 3.984099,4.297604 2.818449,4.197205 4.206846,8.967289 4.210044,14.464366 0.0024,4.364208 -0.423873,6.241758 -2.247069,9.894096 -0.742957,1.488336 -1.350829,2.861061 -1.350829,3.050502 0,0.189441 0.610371,1.059507 1.356381,1.933482 1.817755,2.129553 4.188538,7.036104 4.764204,9.85995 0.524289,2.571816 1.079416,8.559669 1.079416,11.643066 0,3.501723 -1.699432,8.476869 -3.990364,11.681934 -1.068399,1.494717 -1.409637,1.595547 -1.409637,0.416526 z"
       style="fill:#7f6003" />
  </g>
</svg>
